<svg width="16" height="16" viewBox="0 0 16 16" fill="none" xmlns="http://www.w3.org/2000/svg">
<path d="M8.00029 11.9583C8.17746 11.9583 8.32587 11.8984 8.44552 11.7786C8.56517 11.6588 8.625 11.5104 8.625 11.3333V7.79161C8.625 7.61454 8.56508 7.46611 8.44525 7.34631C8.3254 7.22652 8.1769 7.16663 7.99975 7.16663C7.82258 7.16663 7.67417 7.22652 7.55452 7.34631C7.43487 7.46611 7.37504 7.61454 7.37504 7.79161V11.3333C7.37504 11.5104 7.43496 11.6588 7.55479 11.7786C7.67464 11.8984 7.82314 11.9583 8.00029 11.9583ZM8.00002 5.74036C8.19073 5.74036 8.35058 5.67586 8.47958 5.54685C8.60858 5.41785 8.67308 5.258 8.67308 5.06729C8.67308 4.8766 8.60858 4.71674 8.47958 4.58773C8.35058 4.45873 8.19073 4.39423 8.00002 4.39423C7.80931 4.39423 7.64946 4.45873 7.52046 4.58773C7.39146 4.71674 7.32696 4.8766 7.32696 5.06729C7.32696 5.258 7.39146 5.41785 7.52046 5.54685C7.64946 5.67586 7.80931 5.74036 8.00002 5.74036ZM8.00142 15.9166C6.90647 15.9166 5.87728 15.7088 4.91383 15.2933C3.95037 14.8777 3.1123 14.3138 2.39962 13.6014C1.68693 12.889 1.12271 12.0513 0.706978 11.0883C0.291242 10.1253 0.083374 9.0963 0.083374 8.00136C0.083374 6.90641 0.291152 5.87722 0.706708 4.91377C1.12226 3.95031 1.68622 3.11224 2.39858 2.39956C3.11096 1.68687 3.94866 1.12265 4.91169 0.706918C5.8747 0.291182 6.90368 0.083313 7.99862 0.083313C9.09357 0.083313 10.1228 0.291092 11.0862 0.706647C12.0497 1.1222 12.8877 1.68616 13.6004 2.39852C14.3131 3.1109 14.8773 3.9486 15.2931 4.91163C15.7088 5.87464 15.9167 6.90362 15.9167 7.99856C15.9167 9.09351 15.7089 10.1227 15.2933 11.0861C14.8778 12.0496 14.3138 12.8877 13.6015 13.6004C12.8891 14.3131 12.0514 14.8773 11.0884 15.293C10.1253 15.7087 9.09636 15.9166 8.00142 15.9166ZM8.00002 14.6666C9.86113 14.6666 11.4375 14.0208 12.7292 12.7291C14.0209 11.4375 14.6667 9.86107 14.6667 7.99996C14.6667 6.13885 14.0209 4.56246 12.7292 3.27079C11.4375 1.97913 9.86113 1.33329 8.00002 1.33329C6.13891 1.33329 4.56252 1.97913 3.27085 3.27079C1.97919 4.56246 1.33335 6.13885 1.33335 7.99996C1.33335 9.86107 1.97919 11.4375 3.27085 12.7291C4.56252 14.0208 6.13891 14.6666 8.00002 14.6666Z" fill="#888F95"/>
</svg>
